<?xml version="1.0" encoding="utf-8"?>
<!-- Generator: Adobe Illustrator 25.2.3, SVG Export Plug-In . SVG Version: 6.00 Build 0)  -->
<svg version="1.1" id="Laag_1" xmlns="http://www.w3.org/2000/svg" xmlns:xlink="http://www.w3.org/1999/xlink" x="0px" y="0px"
	 viewBox="0 0 908.6 221.6" style="enable-background:new 0 0 908.6 221.6;" xml:space="preserve">
<style type="text/css">
	.st0{fill:#00C441;}
</style>
<g>
	<path d="M45.7,12.5c-11.5,0-21.1,3.2-28,10C4.4,35.8,4.8,59.9,16.1,87.1c0.6,1.5,1.3,3.1,2,4.6c0,0-4.4-18.2,10.1-34.4
		c16.1-16.1,60.3-0.2,95.8,35.3c35.5,35.5,51.3,77.3,35.2,93.4c-12.4,12.4-40.1,5.8-68.4-14.1v2.9h-4.6
		c42.8,33.2,87.8,44.3,107.9,24.2c23.9-23.9,3.7-82.7-45-131.5C114.4,32.7,74.4,12.5,45.7,12.5"/>
	<path class="st0" d="M114.5,28.1c2.9-0.8,27.9-10,45.9,5.9c17,15.1-0.8,59.4-36.3,94.9c-35.5,35.5-77.1,51-93.4,35.2
		c-13.8-13.4-7-45.3-7-45.3C5.4,152.1,1.9,183.2,17.7,199c23.9,23.9,82.8,3.7,131.5-45c48.7-48.7,68.9-107.6,45-131.5
		c-6.8-6.8-16.5-10-28-10C151.2,12.6,133.1,18,114.5,28.1"/>
	<rect x="306.7" y="71.6" width="18.4" height="79"/>
	<polygon points="440.8,85.6 440.8,150.5 422.4,150.5 422.4,85.6 386.3,85.6 386.3,71.5 477.1,71.5 477.1,85.6 	"/>
	<path d="M661.5,150.6l44.7-79h17.7l45.3,79h-20.6l-9.5-17.3H689l-9.2,17.3H661.5z M696.9,119h34.6l-17-32.1L696.9,119z"/>
	<polygon points="531.3,150.5 531.3,71.5 612.1,71.5 612.1,84.9 549.6,84.9 549.6,102.7 586.2,102.7 586.2,116.1 549.6,116.1 
		549.6,135.6 612.8,135.6 612.8,150.5 	"/>
	<path class="st0" d="M870.5,80.2v44.1h-53.5L870.5,80.2z M869,71.5L802.2,127v5.2h68.3v18.3h1.1h2.5h4.4v-18.3h22.5v-8h-22.5V71.5
		H869z"/>
</g>
</svg>
